<?xml version="1.0" encoding="UTF-8"?>
<!DOCTYPE svg PUBLIC "-//W3C//DTD SVG 1.1//EN" "http://www.w3.org/Graphics/SVG/1.1/DTD/svg11.dtd">
<svg version="1.2" width="10.21mm" height="10.21mm" viewBox="2998 5781 1021 1021" preserveAspectRatio="xMidYMid" fill-rule="evenodd" stroke-width="28.222" stroke-linejoin="round" xmlns="http://www.w3.org/2000/svg" xmlns:ooo="http://xml.openoffice.org/svg/export" xmlns:xlink="http://www.w3.org/1999/xlink" xmlns:presentation="http://sun.com/xmlns/staroffice/presentation" xmlns:smil="http://www.w3.org/2001/SMIL20/" xmlns:anim="urn:oasis:names:tc:opendocument:xmlns:animation:1.0" xml:space="preserve">
 <defs class="EmbeddedBulletChars">
  <g id="bullet-char-template-57356" transform="scale(0.00048828125,-0.00048828125)">
   <path d="M 580,1141 L 1163,571 580,0 -4,571 580,1141 Z"/>
  </g>
  <g id="bullet-char-template-57354" transform="scale(0.00048828125,-0.00048828125)">
   <path d="M 8,1128 L 1137,1128 1137,0 8,0 8,1128 Z"/>
  </g>
  <g id="bullet-char-template-10146" transform="scale(0.00048828125,-0.00048828125)">
   <path d="M 174,0 L 602,739 174,1481 1456,739 174,0 Z M 1358,739 L 309,1346 659,739 1358,739 Z"/>
  </g>
  <g id="bullet-char-template-10132" transform="scale(0.00048828125,-0.00048828125)">
   <path d="M 2015,739 L 1276,0 717,0 1260,543 174,543 174,936 1260,936 717,1481 1274,1481 2015,739 Z"/>
  </g>
  <g id="bullet-char-template-10007" transform="scale(0.00048828125,-0.00048828125)">
   <path d="M 0,-2 C -7,14 -16,27 -25,37 L 356,567 C 262,823 215,952 215,954 215,979 228,992 255,992 264,992 276,990 289,987 310,991 331,999 354,1012 L 381,999 492,748 772,1049 836,1024 860,1049 C 881,1039 901,1025 922,1006 886,937 835,863 770,784 769,783 710,716 594,584 L 774,223 C 774,196 753,168 711,139 L 727,119 C 717,90 699,76 672,76 641,76 570,178 457,381 L 164,-76 C 142,-110 111,-127 72,-127 30,-127 9,-110 8,-76 1,-67 -2,-52 -2,-32 -2,-23 -1,-13 0,-2 Z"/>
  </g>
  <g id="bullet-char-template-10004" transform="scale(0.00048828125,-0.00048828125)">
   <path d="M 285,-33 C 182,-33 111,30 74,156 52,228 41,333 41,471 41,549 55,616 82,672 116,743 169,778 240,778 293,778 328,747 346,684 L 369,508 C 377,444 397,411 428,410 L 1163,1116 C 1174,1127 1196,1133 1229,1133 1271,1133 1292,1118 1292,1087 L 1292,965 C 1292,929 1282,901 1262,881 L 442,47 C 390,-6 338,-33 285,-33 Z"/>
  </g>
  <g id="bullet-char-template-9679" transform="scale(0.00048828125,-0.00048828125)">
   <path d="M 813,0 C 632,0 489,54 383,161 276,268 223,411 223,592 223,773 276,916 383,1023 489,1130 632,1184 813,1184 992,1184 1136,1130 1245,1023 1353,916 1407,772 1407,592 1407,412 1353,268 1245,161 1136,54 992,0 813,0 Z"/>
  </g>
  <g id="bullet-char-template-8226" transform="scale(0.00048828125,-0.00048828125)">
   <path d="M 346,457 C 273,457 209,483 155,535 101,586 74,649 74,723 74,796 101,859 155,911 209,963 273,989 346,989 419,989 480,963 531,910 582,859 608,796 608,723 608,648 583,586 532,535 482,483 420,457 346,457 Z"/>
  </g>
  <g id="bullet-char-template-8211" transform="scale(0.00048828125,-0.00048828125)">
   <path d="M -4,459 L 1135,459 1135,606 -4,606 -4,459 Z"/>
  </g>
  <g id="bullet-char-template-61548" transform="scale(0.00048828125,-0.00048828125)">
   <path d="M 173,740 C 173,903 231,1043 346,1159 462,1274 601,1332 765,1332 928,1332 1067,1274 1183,1159 1299,1043 1357,903 1357,740 1357,577 1299,437 1183,322 1067,206 928,148 765,148 601,148 462,206 346,322 231,437 173,577 173,740 Z"/>
  </g>
 </defs>
 <g class="Page">
  <g class="com.sun.star.drawing.LineShape">
   <g id="id3">
    <rect class="BoundingBox" stroke="none" fill="none" x="3149" y="5893" width="648" height="148"/>
    <path fill="none" stroke="rgb(22,48,153)" stroke-width="35" stroke-linejoin="round" d="M 3167,6022 L 3778,5911"/>
   </g>
  </g>
  <g class="com.sun.star.drawing.CustomShape">
   <g id="id4">
    <rect class="BoundingBox" stroke="none" fill="none" x="3758" y="5781" width="261" height="261"/>
    <path fill="rgb(255,255,255)" stroke="none" d="M 4000,5911 C 4000,5931 3995,5950 3985,5967 3975,5984 3961,5998 3944,6008 3927,6018 3908,6023 3888,6023 3868,6023 3849,6018 3832,6008 3815,5998 3801,5984 3791,5967 3781,5950 3776,5931 3776,5911 3776,5891 3781,5872 3791,5855 3801,5838 3815,5824 3832,5814 3849,5804 3868,5799 3888,5799 3908,5799 3927,5804 3944,5814 3961,5824 3975,5838 3985,5855 3995,5872 4000,5891 4000,5911 L 4000,5911 Z"/>
    <path fill="none" stroke="rgb(22,48,153)" stroke-width="35" stroke-linejoin="round" d="M 4000,5911 C 4000,5931 3995,5950 3985,5967 3975,5984 3961,5998 3944,6008 3927,6018 3908,6023 3888,6023 3868,6023 3849,6018 3832,6008 3815,5998 3801,5984 3791,5967 3781,5950 3776,5931 3776,5911 3776,5891 3781,5872 3791,5855 3801,5838 3815,5824 3832,5814 3849,5804 3868,5799 3888,5799 3908,5799 3927,5804 3944,5814 3961,5824 3975,5838 3985,5855 3995,5872 4000,5891 4000,5911 Z"/>
   </g>
  </g>
  <g class="com.sun.star.drawing.LineShape">
   <g id="id5">
    <rect class="BoundingBox" stroke="none" fill="none" x="3260" y="6115" width="259" height="259"/>
    <path fill="none" stroke="rgb(22,48,153)" stroke-width="35" stroke-linejoin="round" d="M 3278,6133 L 3500,6355"/>
   </g>
  </g>
  <g class="com.sun.star.drawing.LineShape">
   <g id="id6">
    <rect class="BoundingBox" stroke="none" fill="none" x="3649" y="6004" width="204" height="481"/>
    <path fill="none" stroke="rgb(255,56,56)" stroke-width="35" stroke-linejoin="round" d="M 3834,6022 L 3667,6466"/>
   </g>
  </g>
  <g class="com.sun.star.drawing.CustomShape">
   <g id="id7">
    <rect class="BoundingBox" stroke="none" fill="none" x="3388" y="6243" width="560" height="559"/>
    <path fill="rgb(22,48,153)" stroke="none" d="M 3946,6522 C 3946,6571 3933,6619 3909,6661 3884,6703 3849,6738 3807,6763 3764,6787 3716,6800 3668,6800 3619,6800 3571,6787 3528,6763 3486,6738 3451,6703 3426,6661 3402,6619 3389,6571 3389,6522 3389,6473 3402,6425 3426,6383 3451,6341 3486,6306 3528,6281 3571,6257 3619,6244 3668,6244 3716,6244 3764,6257 3807,6281 3849,6306 3884,6341 3909,6383 3933,6425 3946,6473 3946,6522 L 3946,6522 Z"/>
    <path fill="none" stroke="rgb(48,80,208)" d="M 3946,6522 C 3946,6571 3933,6619 3909,6661 3884,6703 3849,6738 3807,6763 3764,6787 3716,6800 3668,6800 3619,6800 3571,6787 3528,6763 3486,6738 3451,6703 3426,6661 3402,6619 3389,6571 3389,6522 3389,6473 3402,6425 3426,6383 3451,6341 3486,6306 3528,6281 3571,6257 3619,6244 3668,6244 3716,6244 3764,6257 3807,6281 3849,6306 3884,6341 3909,6383 3933,6425 3946,6473 3946,6522 Z"/>
   </g>
  </g>
  <g class="com.sun.star.drawing.CustomShape">
   <g id="id8">
    <rect class="BoundingBox" stroke="none" fill="none" x="2998" y="5854" width="393" height="394"/>
    <path fill="rgb(255,56,56)" stroke="none" d="M 3389,6051 C 3389,6085 3380,6119 3363,6148 3346,6178 3321,6203 3291,6220 3262,6237 3228,6246 3194,6246 3160,6246 3126,6237 3097,6220 3067,6203 3042,6178 3025,6148 3008,6119 2999,6085 2999,6051 2999,6016 3008,5982 3025,5953 3042,5923 3067,5898 3097,5881 3126,5864 3160,5855 3194,5855 3228,5855 3262,5864 3291,5881 3321,5898 3346,5923 3363,5953 3380,5982 3389,6016 3389,6051 L 3389,6051 Z"/>
    <path fill="none" stroke="rgb(255,56,56)" d="M 3389,6051 C 3389,6085 3380,6119 3363,6148 3346,6178 3321,6203 3291,6220 3262,6237 3228,6246 3194,6246 3160,6246 3126,6237 3097,6220 3067,6203 3042,6178 3025,6148 3008,6119 2999,6085 2999,6051 2999,6016 3008,5982 3025,5953 3042,5923 3067,5898 3097,5881 3126,5864 3160,5855 3194,5855 3228,5855 3262,5864 3291,5881 3321,5898 3346,5923 3363,5953 3380,5982 3389,6016 3389,6051 Z"/>
   </g>
  </g>
 </g>
</svg>