<svg width="15" height="15" viewBox="0 0 15 15" fill="none" xmlns="http://www.w3.org/2000/svg">
	<path d="M10.2857 6.28571C10.2857 8.49107 8.49107 10.2857 6.28572 10.2857C4.08036 10.2857 2.28571 8.49107 2.28571 6.28571C2.28571 4.08036 4.08036 2.28571 6.28572 2.28571C8.49107 2.28571 10.2857 4.08036 10.2857 6.28571ZM14.8571 13.7143C14.8571 13.4107 14.7321 13.1161 14.5268 12.9107L11.4643 9.84822C12.1875 8.80357 12.5714 7.55357 12.5714 6.28571C12.5714 2.8125 9.75893 0 6.28572 0C2.8125 0 0 2.8125 0 6.28571C0 9.75893 2.8125 12.5714 6.28572 12.5714C7.55357 12.5714 8.80357 12.1875 9.84822 11.4643L12.9107 14.5179C13.1161 14.7321 13.4107 14.8571 13.7143 14.8571C14.3393 14.8571 14.8571 14.3393 14.8571 13.7143Z" fill="black"/>
</svg>