<svg width="14" height="16" viewBox="0 0 14 16" fill="none" xmlns="http://www.w3.org/2000/svg">
<path d="M0.468784 0.452183C0.475386 0.37378 0.48138 0.306434 0.486599 0.25H13.5114C13.5167 0.306534 13.5227 0.374028 13.5294 0.452624C13.5538 0.740112 13.5864 1.17614 13.6191 1.76772C13.6845 2.95089 13.75 4.75622 13.75 7.23975C13.75 11.9935 9.86224 14.45 6.99895 15.7266C4.13769 14.45 0.25 11.9954 0.25 7.23975C0.25 4.75519 0.314972 2.94982 0.379797 1.76687C0.41221 1.1754 0.444585 0.739533 0.468784 0.452183Z" stroke="#0B0C0C" stroke-width="0.5"/>
<path d="M7.6155 6.93459C8.39653 6.94648 9.91738 6.97423 11.2712 6.55991C11.2712 6.55991 11.2365 7.00199 11.2365 7.5194C11.2365 8.0368 11.2712 8.4769 11.2712 8.4769C10.0302 8.09231 8.49416 8.09231 7.6155 8.09231V10.8479H6.38537V8.09231C5.50454 8.09231 3.97068 8.09231 2.72754 8.46897C2.72754 8.46897 2.76442 8.02689 2.76442 7.51147C2.76442 6.99604 2.72754 6.55198 2.72754 6.55198C4.0835 6.9663 5.60434 6.93855 6.38537 6.92666V5.20791C5.40416 5.18366 4.42556 5.31169 3.49122 5.58655C3.49122 5.58655 3.5281 5.14447 3.5281 4.62905C3.5281 4.11362 3.49122 3.66956 3.49122 3.66956C4.42404 3.94451 5.40124 4.07255 6.38104 4.0482C6.32616 3.21673 6.19774 2.39067 5.99703 1.57812C5.99703 1.57812 6.71297 1.62967 6.99935 1.62967C7.28573 1.62967 8.00385 1.57812 8.00385 1.57812C7.80314 2.39067 7.67472 3.21673 7.61984 4.0482C8.59963 4.07243 9.5768 3.9444 10.5097 3.66956C10.5097 3.66956 10.4728 4.11362 10.4728 4.62905C10.4728 5.14447 10.5097 5.58655 10.5097 5.58655C9.57532 5.31169 8.59671 5.18366 7.6155 5.20791V6.93459Z" fill="#0B0C0C"/>
<path fill-rule="evenodd" clip-rule="evenodd" d="M1.39062 11.7716C2.84766 13.8899 5.1736 15.196 6.99845 15.9995C8.82575 15.1955 11.1539 13.8876 12.6109 11.767C12.2359 11.166 11.6464 10.5182 10.8473 10.5182C10.5152 10.5105 10.1874 10.588 9.90093 10.7418C9.6145 10.8956 9.38094 11.1196 9.22668 11.3885C9.22668 11.3885 8.44781 9.55078 6.99857 9.55078C5.54932 9.55078 4.77262 11.3885 4.77262 11.3885C4.6185 11.1204 4.38557 10.8969 4.10003 10.7431C3.81449 10.5894 3.48767 10.5115 3.15632 10.5182C2.35642 10.5182 1.76583 11.1693 1.39062 11.7716Z" fill="#0B0C0C"/>
</svg>
