<svg width="18" height="18" viewBox="0 0 18 18" fill="none" xmlns="http://www.w3.org/2000/svg">
<path d="M8.99984 0.666992C4.3915 0.666992 0.666504 4.39199 0.666504 9.00033C0.666504 13.6087 4.3915 17.3337 8.99984 17.3337C13.6082 17.3337 17.3332 13.6087 17.3332 9.00033C17.3332 4.39199 13.6082 0.666992 8.99984 0.666992ZM12.5832 12.5837C12.2582 12.9087 11.7332 12.9087 11.4082 12.5837L8.99984 10.1753L6.5915 12.5837C6.2665 12.9087 5.7415 12.9087 5.4165 12.5837C5.0915 12.2587 5.0915 11.7337 5.4165 11.4087L7.82484 9.00033L5.4165 6.59199C5.0915 6.26699 5.0915 5.74199 5.4165 5.41699C5.7415 5.09199 6.2665 5.09199 6.5915 5.41699L8.99984 7.82533L11.4082 5.41699C11.7332 5.09199 12.2582 5.09199 12.5832 5.41699C12.9082 5.74199 12.9082 6.26699 12.5832 6.59199L10.1748 9.00033L12.5832 11.4087C12.8998 11.7253 12.8998 12.2587 12.5832 12.5837Z" fill="#626A6E"/>
</svg>
