<svg width="18" height="18" viewBox="0 0 18 18" fill="none" xmlns="http://www.w3.org/2000/svg">
<path d="M8.99984 0.666992C4.39984 0.666992 0.666504 4.40033 0.666504 9.00033C0.666504 13.6003 4.39984 17.3337 8.99984 17.3337C13.5998 17.3337 17.3332 13.6003 17.3332 9.00033C17.3332 4.40033 13.5998 0.666992 8.99984 0.666992ZM8.99984 9.83366C8.5415 9.83366 8.1665 9.45866 8.1665 9.00033V5.66699C8.1665 5.20866 8.5415 4.83366 8.99984 4.83366C9.45817 4.83366 9.83317 5.20866 9.83317 5.66699V9.00033C9.83317 9.45866 9.45817 9.83366 8.99984 9.83366ZM9.83317 13.167H8.1665V11.5003H9.83317V13.167Z" fill="#D0190F"/>
</svg>
